<?xml version="1.0" standalone="no"?>
<!DOCTYPE svg PUBLIC "-//W3C//DTD SVG 20010904//EN"
 "http://www.w3.org/TR/2001/REC-SVG-20010904/DTD/svg10.dtd">
<svg version="1.0" xmlns="http://www.w3.org/2000/svg"
 width="27.000000pt" height="33.000000pt" viewBox="0 0 27.000000 33.000000"
 preserveAspectRatio="xMidYMid meet">
<metadata>
Created by potrace 1.11, written by Peter Selinger 2001-2013
</metadata>
<g transform="translate(0.000000,33.000000) scale(0.100000,-0.100000)"
fill="#000000" stroke="none">
<path d="M67 303 c3 -10 13 -24 21 -30 14 -11 11 -13 -14 -13 -40 0 -74 -36
-74 -79 0 -52 21 -119 45 -145 20 -22 30 -24 92 -22 37 1 73 5 79 9 20 12 46
79 51 131 6 64 -21 106 -68 106 -29 0 -29 0 -9 20 11 11 20 25 20 30 0 17 -20
11 -45 -15 -17 -16 -25 -20 -25 -10 0 8 -9 15 -19 15 -11 0 -23 5 -26 10 -11
18 -35 11 -28 -7z m63 -43 c0 -5 -5 -10 -11 -10 -5 0 -7 5 -4 10 3 6 8 10 11
10 2 0 4 -4 4 -10z m30 -4 c0 -3 -4 -8 -10 -11 -5 -3 -10 -1 -10 4 0 6 5 11
10 11 6 0 10 -2 10 -4z"/>
</g>
</svg>
