<?xml version="1.0" encoding="UTF-8" standalone="no"?>
<svg width="60px" height="60px" viewBox="0 0 60 60" version="1.1" xmlns="http://www.w3.org/2000/svg" xmlns:xlink="http://www.w3.org/1999/xlink" xmlns:sketch="http://www.bohemiancoding.com/sketch/ns">
    <!-- Generator: Sketch 3.1.1 (8761) - http://www.bohemiancoding.com/sketch -->
    <title>icon-attendance</title>
    <desc>Created with Sketch.</desc>
    <defs></defs>
    <g id="Welcome" stroke="none" stroke-width="1" fill="none" fill-rule="evenodd" sketch:type="MSPage">
        <g id="Desktop-HD" sketch:type="MSArtboardGroup" transform="translate(-118.000000, -651.000000)">
            <g id="icon-attendance" sketch:type="MSLayerGroup" transform="translate(118.000000, 651.000000)">
                <rect id="Rectangle-166" fill="#FFFFFF" sketch:type="MSShapeGroup" x="0" y="0" width="60" height="60"></rect>
                <path d="M20.4024619,5.74814073 C23.2305149,4.74514912 23.0394179,9.77165623 23.2305149,11.2374987 C23.5084742,14.254469 24.1695419,17.9101913 25.2045745,20.6526494 C26.1436015,16.2640058 26.0512531,11.7838582 26.2396071,7.30726409 C26.3310411,5.93292572 26.7086634,2.82800484 28.5903747,3.0074595 C33.0130363,3.28463698 27.9320501,17.7262947 30.8497084,19.5546001 C32.823768,17.3593899 33.3906586,11.6923541 34.1431603,8.85839195 C34.4266056,7.67061535 34.809714,3.91450505 37.5289605,5.47629358 C39.6017688,6.66762374 37.9047542,14.1629649 37.2491725,16.5376297 C36.5871905,19.0064638 36.5871905,20.7405999 35.8337745,23.5772272 C35.6509066,25.497925 35.2741986,27.6007427 36.5871905,29.0630316 C38.9416155,29.0630316 44.3554214,22.5689052 46.9896343,24.578442 C48.7771686,25.8594995 47.8884303,27.5065734 46.663215,28.2830257 C37.6267949,33.9553919 39.0339638,40.9923242 34.7045649,41.813196 C34.7045649,49.020699 34.2556241,49.2925462 35.003554,56.465402 C30.3011045,57.2240865 25.3810421,57.0366364 20.878833,56.7461331 C21.1869655,52.9615943 21.0617009,55.8408643 21.3488036,51.6458896 C21.5645878,48.386389 21.6276772,45.4724718 21.7255116,42.2724933 L21.6276772,41.9073653 C18.8087677,41.1726672 17.9639177,36.3780298 17.0194047,33.1780512 C15.9862007,29.7000068 17.2077587,26.5933091 15.8883664,23.2129875 C15.0508311,20.651761 11.4885633,14.2891162 13.7286958,12.4261637 C15.0508311,11.3263376 15.7960181,12.2404903 16.8310507,14.6160435 C17.679558,16.551844 18.1056404,22.2037772 20.5944733,22.4782895 C21.9065509,21.0053399 16.5037171,7.14113528 20.4024619,5.74814073 Z" fill="#3CA0CB" sketch:type="MSShapeGroup"></path>
            </g>
        </g>
    </g>
</svg>