<?xml version="1.0" encoding="UTF-8" standalone="no"?>
<svg width="60px" height="60px" viewBox="0 0 60 60" version="1.1" xmlns="http://www.w3.org/2000/svg" xmlns:xlink="http://www.w3.org/1999/xlink" xmlns:sketch="http://www.bohemiancoding.com/sketch/ns">
    <!-- Generator: Sketch 3.1.1 (8761) - http://www.bohemiancoding.com/sketch -->
    <title>icon-phone</title>
    <desc>Created with Sketch.</desc>
    <defs></defs>
    <g id="Welcome" stroke="none" stroke-width="1" fill="none" fill-rule="evenodd" sketch:type="MSPage">
        <g id="Desktop-HD" sketch:type="MSArtboardGroup" transform="translate(-340.000000, -651.000000)">
            <g id="icon-phone" sketch:type="MSLayerGroup" transform="translate(340.000000, 651.000000)">
                <rect id="Rectangle-167" fill="#FFFFFF" sketch:type="MSShapeGroup" x="0" y="0" width="60" height="60"></rect>
                <path d="M20.1718723,3 C17.8678108,3 16,4.69543846 16,6.78677267 L16,53.2132273 C16,55.3046041 17.8679076,57 20.1718723,57 L40.8281277,57 C43.1321892,57 45,55.3045615 45,53.2132273 L45,6.78677267 C45,4.69539587 43.1320924,3 40.8281277,3 L20.1718723,3 L20.1718723,3 Z M20.3408465,12.2999878 C20.2630658,12.2999878 20.2000122,12.3607131 20.2000122,12.4355182 L20.2000122,48.4644566 C20.2000122,48.539308 20.2631265,48.599987 20.3408465,48.599987 L41.559178,48.599987 C41.6369586,48.599987 41.7000122,48.5392617 41.7000122,48.4644566 L41.7000122,12.4355182 C41.7000122,12.3606668 41.6368979,12.2999878 41.559178,12.2999878 L20.3408465,12.2999878 L20.3408465,12.2999878 Z M30.7,55.4193776 C32.1911688,55.4193776 33.4,54.2062086 33.4,52.7096888 C33.4,51.213169 32.1911688,50 30.7,50 C29.2088312,50 28,51.213169 28,52.7096888 C28,54.2062086 29.2088312,55.4193776 30.7,55.4193776 L30.7,55.4193776 Z M30.9264706,8.73608071 C31.6330702,8.73608071 32.2058824,8.18464026 32.2058824,7.50440399 C32.2058824,6.82416772 31.6330702,6.27272727 30.9264706,6.27272727 C30.219871,6.27272727 29.6470588,6.82416772 29.6470588,7.50440399 C29.6470588,8.18464026 30.219871,8.73608071 30.9264706,8.73608071 L30.9264706,8.73608071 Z" fill="#3CA0CB" sketch:type="MSShapeGroup"></path>
            </g>
        </g>
    </g>
</svg>