<?xml version="1.0" encoding="UTF-8" standalone="no"?>
<svg width="60px" height="60px" viewBox="0 0 60 60" version="1.1" xmlns="http://www.w3.org/2000/svg" xmlns:xlink="http://www.w3.org/1999/xlink" xmlns:sketch="http://www.bohemiancoding.com/sketch/ns">
    <!-- Generator: Sketch 3.1.1 (8761) - http://www.bohemiancoding.com/sketch -->
    <title>icon-app</title>
    <desc>Created with Sketch.</desc>
    <defs></defs>
    <g id="Welcome" stroke="none" stroke-width="1" fill="none" fill-rule="evenodd" sketch:type="MSPage">
        <g id="Desktop" sketch:type="MSArtboardGroup" transform="translate(-482.000000, -351.000000)">
            <g id="Group" sketch:type="MSLayerGroup" transform="translate(0.000000, 351.000000)">
                <g id="icon-app" transform="translate(482.500000, 0.500000)" sketch:type="MSShapeGroup">
                    <rect id="Rectangle-10" fill="#FFFFFF" x="0" y="0" width="59" height="59" rx="4"></rect>
                    <g id="Group" transform="translate(11.800000, 10.114286)">
                        <path d="M17.2896318,7.07256797 C21.6885142,7.52841035 26.5774765,4.68397733 26.5774767,0.898870138 C26.5774767,0.855277648 26.5769345,0.812321849 26.575862,0.769994016 C22.5231776,0.974421015 17.9943121,3.43879198 17.2896318,7.07256797 Z" id="Path-117" fill="#A6AD3C" transform="translate(21.933554, 3.945296) rotate(-10.000000) translate(-21.933554, -3.945296) "></path>
                        <path d="M16.2088464,6.79197104 C12.2748404,7.46014704 7.66473649,4.92242798 7.66473633,1.49768927 C7.66473632,1.10400093 7.71567307,0.770126965 7.8059165,0.487541229 C11.6286887,0.574166283 16.0570493,3.0355573 16.2077444,6.63335964 C16.2100027,6.68727401 16.2103548,6.74013865 16.2088464,6.79197104 Z" id="Path-117" fill="#A6AD3C" transform="translate(11.937248, 3.693372) rotate(6.000000) translate(-11.937248, -3.693372) "></path>
                        <path d="M15.5845153,1.84980232 C16.0788782,4.13912626 16.4093073,7.08257504 16.1909158,10.4516787 C16.1282404,11.4185647 16.0589504,12.072407 15.9870964,12.4916139 L16.1703663,13.2342366 L16.6932532,13.9029136 L17.35217,13.0827552 C17.3845237,12.8360167 17.4150632,12.5794434 17.4435561,12.3126514 C17.8485269,8.52073542 17.4405186,4.76806945 16.9109583,2.07479635 C16.442064,1.95691438 15.9750955,1.88672876 15.5845153,1.84980232 Z" id="Path-123" fill="#373332"></path>
                        <path d="M16.8592167,11.3279165 C14.7882571,8.50185994 13.1816282,7.14962105 9.40142521,7.14962121 C5.07708543,7.14962139 0.047623759,10.732128 0.0051820427,16.8301581 C-0.0912817924,30.6900915 6.58231345,38.7838561 10.4670175,38.7838561 C14.1303447,38.7838561 14.2813663,37.6628847 16.8592167,37.5351236 C19.4370671,37.6628847 19.5880887,38.7838561 23.251416,38.7838561 C27.13612,38.7838561 33.8097152,30.6900915 33.7132514,16.8301581 C33.6708097,10.732128 28.641348,7.14962139 24.3170082,7.14962121 C20.5368053,7.14962105 18.9301763,8.50185994 16.8592167,11.3279165 Z" id="Path-112" fill="#F12D29"></path>
                    </g>
                </g>
            </g>
        </g>
    </g>
</svg>