<?xml version="1.0" encoding="UTF-8" standalone="no"?>
<svg width="175px" height="360px" viewBox="0 0 175 360" version="1.1" xmlns="http://www.w3.org/2000/svg" xmlns:xlink="http://www.w3.org/1999/xlink" xmlns:sketch="http://www.bohemiancoding.com/sketch/ns">
    <!-- Generator: Sketch 3.1.1 (8761) - http://www.bohemiancoding.com/sketch -->
    <title>iphone-container</title>
    <desc>Created with Sketch.</desc>
    <defs>
        <rect id="path-1" x="0" y="0" width="175" height="360"></rect>
        <linearGradient x1="0%" y1="0%" x2="104.419843%" y2="100%" id="linearGradient-3">
            <stop stop-color="#D8D8D8" offset="26.8534758%"></stop>
            <stop stop-color="#B0B0B0" offset="0%"></stop>
            <stop stop-color="#979797" offset="100%"></stop>
        </linearGradient>
    </defs>
    <g id="Welcome" stroke="none" stroke-width="1" fill="none" fill-rule="evenodd" sketch:type="MSPage">
        <g id="iphone-container" sketch:type="MSLayerGroup">
            <g id="iPhone-2">
                <mask id="mask-2" sketch:name="Mask" fill="white">
                    <use xlink:href="#path-1"></use>
                </mask>
                <use id="Mask" sketch:type="MSShapeGroup" xlink:href="#path-1"></use>
                <g sketch:type="MSShapeGroup">
                    <path d="M25.1750915,0 C11.2712724,0 0,11.302923 0,25.2451511 L0,334.754849 C0,348.697361 11.2718564,360 25.1750915,360 L149.824909,360 C163.728728,360 175,348.697077 175,334.754849 L175,25.2451511 C175,11.3026391 163.728144,0 149.824909,0 L25.1750915,0 L25.1750915,0 Z M26.9658077,4.10490308 C14.0794765,4.10490308 3.63304094,14.5795487 3.63304094,27.5019747 L3.63304094,332.498025 C3.63304094,345.419871 14.0810757,355.895097 26.9658077,355.895097 L147.829514,355.895097 C160.715845,355.895097 171.162281,345.420451 171.162281,332.498025 L171.162281,27.5019747 C171.162281,14.5801289 160.714246,4.10490308 147.829514,4.10490308 L26.9658077,4.10490308 L26.9658077,4.10490308 Z" id="Edges" fill="url(#linearGradient-3)"></path>
                    <path d="M8,41 L8,319 L167,319 L167,41 L8,41 Z M11,44 L11,316 L164,316 L164,44 L11,44 Z" id="Frame" fill="#000000"></path>
                    <path d="M25.3797071,2.05245154 C12.4932893,2.05245154 2.04678363,12.5289726 2.04678363,25.4509955 L2.04678363,334.549005 C2.04678363,347.471664 12.4924744,357.947548 25.3797071,357.947548 L149.620293,357.947548 C162.506711,357.947548 172.953216,347.471027 172.953216,334.549005 L172.953216,25.4509955 C172.953216,12.5283365 162.507526,2.05245154 149.620293,2.05245154 L25.3797071,2.05245154 L25.3797071,2.05245154 Z M10.4395234,42.4857469 C9.87380781,42.4857469 9.41520468,42.9461785 9.41520468,43.5133654 L9.41520468,316.69188 C9.41520468,317.259418 9.87424888,317.719498 10.4395234,317.719498 L164.765155,317.719498 C165.330871,317.719498 165.789474,317.259067 165.789474,316.69188 L165.789474,43.5133654 C165.789474,42.9458274 165.330429,42.4857469 164.765155,42.4857469 L10.4395234,42.4857469 L10.4395234,42.4857469 Z" id="Face" fill="#FFFFFF"></path>
                    <ellipse id="Camera" fill="#4A4A4A" cx="59.6637427" cy="23.6031927" rx="3.07017544" ry="3.07867731"></ellipse>
                    <ellipse id="Sensor" fill="#4A4A4A" cx="87.5" cy="11.4937286" rx="2.25146199" ry="2.25769669"></ellipse>
                    <rect id="Speaker" fill="#4A4A4A" x="73.1725146" y="21.7559863" width="28.6549708" height="3.07867731" rx="120"></rect>
                    <path d="M87.5,351.379704 C95.0737295,351.379704 101.21345,345.222981 101.21345,337.628278 C101.21345,330.033576 95.0737295,323.876853 87.5,323.876853 C79.9262705,323.876853 73.7865497,330.033576 73.7865497,337.628278 C73.7865497,345.222981 79.9262705,351.379704 87.5,351.379704 Z M87.5,349.737742 C94.1694036,349.737742 99.5760234,344.316151 99.5760234,337.628278 C99.5760234,330.940406 94.1694036,325.518814 87.5,325.518814 C80.8305964,325.518814 75.4239766,330.940406 75.4239766,337.628278 C75.4239766,344.316151 80.8305964,349.737742 87.5,349.737742 Z" id="Touch-ID" fill="#979797"></path>
                </g>
            </g>
        </g>
    </g>
</svg>